<?xml version="1.0" encoding="UTF-8" standalone="no"?>
<!-- Created with Inkscape (http://www.inkscape.org/) -->

<svg
   xmlns:dc="http://purl.org/dc/elements/1.1/"
   xmlns:cc="http://creativecommons.org/ns#"
   xmlns:rdf="http://www.w3.org/1999/02/22-rdf-syntax-ns#"
   xmlns:svg="http://www.w3.org/2000/svg"
   xmlns="http://www.w3.org/2000/svg"
   xmlns:sodipodi="http://sodipodi.sourceforge.net/DTD/sodipodi-0.dtd"
   xmlns:inkscape="http://www.inkscape.org/namespaces/inkscape"
   width="496"
   height="173"
   viewBox="0 0 496.00001 173"
   id="svg2"
   version="1.1"
   inkscape:version="0.91 r13725"
   sodipodi:docname="logo-dpmb.svg">
  <defs
     id="defs4" />
  <sodipodi:namedview
     id="base"
     pagecolor="#ffffff"
     bordercolor="#666666"
     borderopacity="1.0"
     inkscape:pageopacity="0.0"
     inkscape:pageshadow="2"
     inkscape:zoom="0.35"
     inkscape:cx="-97.857143"
     inkscape:cy="520"
     inkscape:document-units="px"
     inkscape:current-layer="layer1"
     showgrid="false"
     inkscape:window-width="1920"
     inkscape:window-height="1017"
     inkscape:window-x="-8"
     inkscape:window-y="-8"
     inkscape:window-maximized="1"
     units="px" />
  <metadata
     id="metadata7">
    <rdf:RDF>
      <cc:Work
         rdf:about="">
        <dc:format>image/svg+xml</dc:format>
        <dc:type
           rdf:resource="http://purl.org/dc/dcmitype/StillImage" />
        <dc:title></dc:title>
      </cc:Work>
    </rdf:RDF>
  </metadata>
  <g
     inkscape:label="Vrstva 1"
     inkscape:groupmode="layer"
     id="layer1"
     transform="translate(0,-879.36216)">
    <g
       id="g4138"
       transform="translate(-170.2378,686.6237)">
      <path
         inkscape:connector-curvature="0"
         id="path4140"
         style="fill:#e30016;fill-rule:evenodd"
         d="m 174.4019,336.4052 c 4.1477,0 7.3818,0.6994 9.6897,2.0944 2.9421,1.7693 4.5962,4.7401 4.9584,8.8957 l 0,1.045 c 0,2.8927 -0.9093,5.3655 -2.724,7.4148 -2.3618,2.6581 -5.9124,3.9872 -10.6444,3.9872 l -5.4438,0 0,-23.4371 4.1641,0 z m 0.177,4.2134 0,14.9526 1.0123,0.0287 c 2.7651,0 4.9211,-0.5514 6.4599,-1.6458 1.7283,-1.2427 2.5962,-3.156 2.5962,-5.7318 0,-2.259 -0.7243,-4.0654 -2.1682,-5.4146 -1.5924,-1.4773 -3.8884,-2.2178 -6.8839,-2.2178 l -1.0163,0.0287 z m 18.9688,4.1803 c 1.074,-1.0325 2.222,-1.8062 3.4317,-2.3122 1.2137,-0.506 2.4277,-0.7613 3.6291,-0.7613 2.4894,0 4.6621,0.9259 6.509,2.7731 1.8477,1.8475 2.7734,4.0199 2.7734,6.5093 0,2.576 -0.9134,4.7897 -2.7404,6.6331 -1.8266,1.8474 -4.0279,2.7733 -6.6037,2.7733 -2.617,0 -4.8431,-0.9136 -6.6658,-2.7363 -1.827,-1.827 -2.7404,-4.0531 -2.7404,-6.6701 0,-1.0944 0.185,-2.1478 0.5513,-3.1518 0.3704,-1.004 0.9917,-2.0244 1.8558,-3.0571 z m 3.1683,2.6581 c -0.4033,0.5266 -0.7323,1.1067 -0.9833,1.728 -0.251,0.6214 -0.3787,1.2757 -0.3787,1.9504 0,1.4154 0.4897,2.6377 1.469,3.6581 0.9794,1.0204 2.1808,1.5347 3.5962,1.5347 1.4977,0 2.72,-0.4937 3.658,-1.473 0.9381,-0.9794 1.4114,-2.2221 1.4114,-3.7198 0,-1.4771 -0.4856,-2.728 -1.4567,-3.7401 -0.971,-1.0123 -2.2014,-1.5226 -3.6744,-1.5226 -1.436,0 -2.654,0.5309 -3.6457,1.5843 l 0.004,0 z m 15.5495,18.2815 0,-23.4698 3.8307,0 0,2.3738 c 1.6047,-1.9831 3.5594,-2.9788 5.8595,-2.9788 2.4483,0 4.5176,0.9834 6.2046,2.9459 1.6047,1.8597 2.4111,4.0364 2.4111,6.5258 0,2.5347 -0.8394,4.7155 -2.5181,6.5384 -1.6787,1.8268 -3.7852,2.7404 -6.3199,2.7404 -1.0738,0 -2.0572,-0.2016 -2.9419,-0.6009 -0.8889,-0.399 -1.6623,-1.0367 -2.3126,-1.9051 l 0,7.8262 -4.2134,0.004 z m 4.3081,-16.8538 c -0.3168,0.6996 -0.4774,1.432 -0.4774,2.189 0,1.4978 0.494,2.7487 1.4814,3.7485 0.9876,1.004 2.2384,1.506 3.7444,1.506 1.3826,0 2.58,-0.502 3.588,-1.5017 1.0081,-1.0041 1.5139,-2.1934 1.5139,-3.5634 0,-1.4567 -0.5181,-2.7198 -1.5468,-3.7857 -1.0287,-1.0657 -2.2795,-1.6005 -3.7444,-1.6005 -0.9341,0 -1.8064,0.2427 -2.6128,0.7284 -0.8064,0.4854 -1.4607,1.2507 -1.9463,2.2834 l 0,-0.004 z m 16.5946,10.9576 0,-17.5736 3.8308,0 0,1.613 c 0.8641,-1.4773 2.2467,-2.218 4.1477,-2.218 l 0,4.0856 c -1.3496,0.148 -2.2796,0.4897 -2.7857,1.0163 -0.65,0.6748 -0.9793,1.8351 -0.9793,3.4811 l 0,9.5956 -4.2135,0 z m 9.3116,-8.9619 c 0,-2.9297 0.9423,-5.2341 2.8187,-6.9 1.6458,-1.4567 3.6208,-2.1891 5.9209,-2.1891 1.2839,0 2.4813,0.2593 3.5757,0.7737 1.0987,0.5184 1.9051,1.2424 2.4113,2.172 l 0,-2.4683 3.8304,0 0,17.5736 -3.8304,0 0,-2.4071 c -0.613,0.864 -1.4936,1.58 -2.6293,2.1394 -1.1397,0.5597 -2.2837,0.8396 -3.4234,0.8396 -2.5511,0 -4.6374,-0.9053 -6.2502,-2.7076 -1.613,-1.8021 -2.4237,-4.0818 -2.4237,-6.8222 l 0,-0.004 z m 9.5339,5.4478 c 1.4524,0 2.6621,-0.502 3.6208,-1.5017 0.9629,-1.0041 1.4443,-2.255 1.4443,-3.7528 0,-1.6047 -0.502,-2.872 -1.506,-3.802 -1.004,-0.9298 -2.2341,-1.3948 -3.6868,-1.3948 -1.4154,0 -2.6374,0.4814 -3.658,1.4401 -1.0204,0.963 -1.5347,2.2384 -1.5347,3.8184 0,1.6254 0.5719,2.9257 1.7076,3.8967 1.0123,0.8641 2.2178,1.2961 3.6085,1.2961 l 0.004,0 z m 10.4513,-14.0638 4.6867,0 4.0858,11.5291 4.0818,-11.5291 4.6576,0 -7.1264,17.5779 -3.263,0 -7.1225,-17.5779 z m 19.5078,0 3.8967,0.004 0,1.7402 c 0.6913,-0.7815 1.4647,-1.3699 2.3084,-1.7568 0.8434,-0.3908 1.724,-0.5884 2.6293,-0.5884 1.8557,0 3.4192,0.6873 4.6865,2.0616 1.3739,1.4767 2.0612,3.4107 2.0612,5.7931 l 0,10.3239 -4.2132,0 0,-9.2129 c 0,-1.5801 -0.362,-2.7981 -1.078,-3.6415 -0.6337,-0.7406 -1.4484,-1.111 -2.4401,-1.111 -0.971,0 -1.8227,0.3457 -2.5468,1.0287 -0.7243,0.6871 -1.0906,1.5841 -1.0906,2.6787 l 0,10.258 -4.2134,0 0,-17.5779 z m 19.0017,0 4.2135,0 0,17.5779 -4.2135,0 0,-17.5779 z m 0.284,-4.2421 6.0485,-3.5468 1.4237,2.8184 -6.0772,3.2341 -1.395,-2.5057 z m 16.1503,27.7162 0,-23.4698 3.8308,0 0,2.3738 c 1.6047,-1.9831 3.5591,-2.9788 5.8592,-2.9788 2.4484,0 4.5176,0.9834 6.2047,2.9459 1.6047,1.8597 2.4113,4.0364 2.4113,6.5258 0,2.5347 -0.8394,4.7155 -2.5183,6.5384 -1.6788,1.8268 -3.785,2.7404 -6.3198,2.7404 -1.0739,0 -2.0573,-0.2016 -2.942,-0.6009 -0.8887,-0.399 -1.6624,-1.0367 -2.3124,-1.9051 l 0,7.8262 -4.2135,0.004 z m 4.3081,-16.8538 c -0.3169,0.6996 -0.4773,1.432 -0.4773,2.189 0,1.4978 0.4937,2.7487 1.4814,3.7485 0.9874,1.004 2.2383,1.506 3.7441,1.506 1.3827,0 2.5801,-0.502 3.5881,-1.5017 1.0081,-1.0041 1.5139,-2.1934 1.5139,-3.5634 0,-1.4567 -0.5182,-2.7198 -1.5469,-3.7857 -1.0284,-1.0657 -2.2794,-1.6005 -3.7442,-1.6005 -0.934,0 -1.8063,0.2427 -2.6129,0.7284 -0.8064,0.4854 -1.4608,1.2507 -1.9462,2.2834 l 0,-0.004 z m 18.1788,-4.0858 c 1.0738,-1.0325 2.2218,-1.8062 3.4317,-2.3122 1.2138,-0.506 2.4275,-0.7613 3.6291,-0.7613 2.4894,0 4.6619,0.9259 6.5091,2.7731 1.8474,1.8475 2.7734,4.0199 2.7734,6.5093 0,2.576 -0.9137,4.7897 -2.7404,6.6331 -1.8266,1.8474 -4.028,2.7733 -6.6037,2.7733 -2.6171,0 -4.8431,-0.9136 -6.6659,-2.7363 -1.827,-1.827 -2.7404,-4.0531 -2.7404,-6.6701 0,-1.0944 0.1851,-2.1478 0.5514,-3.1518 0.3703,-1.004 0.9917,-2.0244 1.8557,-3.0571 z m 3.1682,2.6581 c -0.4031,0.5266 -0.7324,1.1067 -0.9834,1.728 -0.251,0.6214 -0.3784,1.2757 -0.3784,1.9504 0,1.4154 0.4897,2.6377 1.4688,3.6581 0.9793,1.0204 2.1809,1.5347 3.5963,1.5347 1.4978,0 2.7198,-0.4937 3.6581,-1.473 0.938,-0.9794 1.4113,-2.2221 1.4113,-3.7198 0,-1.4771 -0.4856,-2.728 -1.4566,-3.7401 -0.9711,-1.0123 -2.2014,-1.5226 -3.6745,-1.5226 -1.436,0 -2.654,0.5309 -3.6457,1.5843 l 0.004,0 z m 29.0089,-3.4481 0,-7.6037 4.2747,0 0,23.4371 -3.8304,0 0,-2.5348 c -0.5679,0.9958 -1.5347,1.7898 -2.8844,2.3784 -1.0946,0.4854 -2.1109,0.7283 -3.0407,0.7283 -2.2797,0 -4.3081,-0.9093 -6.0775,-2.724 -1.7734,-1.8147 -2.6623,-4.0037 -2.6623,-6.5548 0,-2.8474 0.9423,-5.1845 2.8187,-6.9991 1.7076,-1.6456 3.7031,-2.4726 5.9828,-2.4726 1.2261,0 2.3164,0.2429 3.2628,0.7283 0.6543,0.3374 1.3743,0.8807 2.1563,1.6169 z m -10.0072,6.8715 c 0,1.5841 0.5063,2.8967 1.5184,3.9295 0.9464,0.971 2.0903,1.4566 3.4194,1.4566 1.3703,0 2.5634,-0.4443 3.5757,-1.329 1.1604,-1.0123 1.7447,-2.3701 1.7447,-4.0571 0,-1.3907 -0.531,-2.5881 -1.5843,-3.5798 -1.0534,-0.9917 -2.259,-1.4896 -3.6085,-1.4896 -1.288,0 -2.4566,0.4937 -3.4977,1.473 -1.045,0.9834 -1.5677,2.185 -1.5677,3.5964 z m 17.4507,-8.616 3.8965,0.004 0,1.7402 c 0.6913,-0.7815 1.465,-1.3699 2.3084,-1.7568 0.8436,-0.3908 1.724,-0.5884 2.6293,-0.5884 1.8557,0 3.4194,0.6873 4.6868,2.0616 1.3739,1.4767 2.0609,3.4107 2.0609,5.7931 l 0,10.3239 -4.213,0 0,-9.2129 c 0,-1.5801 -0.3622,-2.7981 -1.078,-3.6415 -0.6337,-0.7406 -1.4484,-1.111 -2.44,-1.111 -0.9711,0 -1.823,0.3457 -2.5471,1.0287 -0.7243,0.6871 -1.0904,1.5841 -1.0904,2.6787 l 0,10.258 -4.2134,0 0,-17.5779 z m 19.0018,-5.8592 4.2134,0 0,3.8308 -4.2134,0 0,-3.8308 z m 0,5.8592 4.2134,0.004 0,17.5736 -4.2134,0 0,-17.5779 z m 11.8133,-5.8592 0,14.1582 5.6041,-8.2947 5.0033,0 -6.3653,8.6117 7.3774,8.9619 -5.6367,0 -5.9828,-8.2336 0,8.2336 -4.2135,0 0,-23.4371 4.2135,0 z m 22.9888,5.8592 3.8308,0.004 0,1.7402 c 0.354,-0.7405 0.9381,-1.3082 1.7364,-1.6949 0.8024,-0.391 1.7034,-0.5886 2.6951,-0.5886 1.0533,0 2.0491,0.2223 2.979,0.6666 0.93,0.4444 1.6913,1.1317 2.2797,2.0612 0.5922,-0.8638 1.4026,-1.5385 2.4232,-2.0118 1.0204,-0.4773 2.0944,-0.716 3.2135,-0.716 1.9421,0 3.5921,0.5926 4.9418,1.7776 1.4977,1.3082 2.2507,3.0816 2.2507,5.32 l 0,11.0193 -4.2751,0 0,-10.2622 c 0,-1.2221 -0.3004,-2.1601 -0.9011,-2.8021 -0.6009,-0.642 -1.362,-0.967 -2.2673,-0.967 -0.9504,0 -1.7774,0.362 -2.473,1.078 -0.7777,0.8024 -1.1685,1.8394 -1.1685,3.1067 l 0,9.8466 -4.2132,0 0,-10.1799 c 0,-1.185 -0.3454,-2.1274 -1.0287,-2.8144 -0.687,-0.6914 -1.5181,-1.037 -2.4894,-1.037 -0.9257,0 -1.687,0.3293 -2.2794,0.9876 -0.6913,0.7654 -1.041,1.8391 -1.041,3.2135 l 0,9.8302 -4.2135,0 0,-17.5779 z m 28.9141,8.6117 c 0,-2.1314 0.7283,-4.0941 2.185,-5.8881 1.7691,-2.172 4.0941,-3.2626 6.9662,-3.2626 2.3617,0 4.4355,0.8272 6.2086,2.4726 1.9217,1.794 2.8844,4.0447 2.8844,6.7441 0,0.5677 -0.0533,1.2261 -0.1603,1.9627 l -13.6195,0 c 0.2551,1.037 0.8313,1.868 1.7283,2.4894 0.8968,0.6213 1.9051,0.934 3.0242,0.934 1.4773,0 2.7363,-0.5184 3.7691,-1.5513 l 4.6533,0 c -0.6294,1.6706 -1.6664,3.0286 -3.106,4.0696 -1.4403,1.0451 -3.1438,1.5677 -5.0984,1.5677 -2.5881,0 -4.8099,-0.8889 -6.6575,-2.6583 -1.8517,-1.7734 -2.7774,-3.8061 -2.7774,-6.0855 l 0,-0.7943 z m 9.2169,-5.0651 c -1.2674,0 -2.3577,0.3826 -3.2628,1.1397 -0.7407,0.609 -1.2593,1.362 -1.5514,2.2467 l 9.6613,0 c -0.2961,-0.8641 -0.827,-1.613 -1.5841,-2.2467 -0.93,-0.7571 -2.0203,-1.1397 -3.263,-1.1397 z m -1.3291,-9.8174 1.7077,2.0574 1.6788,-2.0574 4.6533,0 -4.6533,4.4028 -3.3248,0 -4.7195,-4.4028 4.6578,0 z m 12.986,9.5006 c 0.4197,-1.2016 1.2017,-2.1515 2.3414,-2.8471 1.0123,-0.6131 2.0903,-0.9217 3.23,-0.9217 1.5184,0 2.8681,0.5103 4.0365,1.5226 1.1727,1.0119 1.7611,2.3039 1.7611,3.8633 l -4.0242,0 c -0.1646,-0.4197 -0.4033,-0.7366 -0.7077,-0.934 -0.3043,-0.2017 -0.6623,-0.3046 -1.0657,-0.3046 -0.4196,0 -0.8063,0.144 -1.152,0.4279 -0.3457,0.284 -0.5227,0.6297 -0.5227,1.0328 0.0411,0.251 0.1647,0.502 0.3621,0.7406 0.1976,0.243 0.5143,0.4527 0.934,0.6214 1.181,0.3786 2.366,0.7613 3.547,1.1397 1.8557,0.8643 2.8844,2.144 3.0738,3.831 0,1.8598 -0.5104,3.3904 -1.5227,4.5918 -1.1603,1.391 -2.7774,2.0904 -4.8471,2.0904 -0.609,0 -1.2344,-0.0657 -1.868,-0.1893 -1.2427,-0.2304 -2.2795,-0.8558 -3.1025,-1.8681 -0.8847,-1.074 -1.329,-2.3947 -1.329,-3.9584 l 4.2421,0 c 0.1483,0.6543 0.428,1.1523 0.8396,1.4854 0.4114,0.3376 0.8598,0.5063 1.3454,0.5063 0.5678,0 1.0534,-0.173 1.4401,-0.5186 0.391,-0.3455 0.5884,-0.7981 0.5884,-1.3495 0,-0.5886 -0.5677,-1.111 -1.6951,-1.5637 -1.1274,-0.4526 -2.2344,-0.9053 -3.3084,-1.3496 -0.9917,-0.4854 -1.7281,-1.1234 -2.2014,-1.9134 -0.473,-0.79 -0.7117,-1.6128 -0.7117,-2.4564 0.0411,-0.3374 0.0823,-0.6214 0.1234,-0.8517 0.0412,-0.2304 0.107,-0.5103 0.1893,-0.8271 l 0.004,0 z m 14.7596,-3.2298 0,-5.8592 4.2135,0 0,5.8592 2.5964,0 0,3.7072 -2.5964,0 0,13.8707 -4.2135,0 0,-13.8707 -2.0286,0 0,-3.7072 2.0286,0 z m 8.1059,8.616 c 0,-2.9297 0.9424,-5.2341 2.8187,-6.9 1.6458,-1.4567 3.6208,-2.1891 5.9209,-2.1891 1.284,0 2.4813,0.2593 3.5757,0.7737 1.0987,0.5184 1.9051,1.2424 2.4114,2.172 l 0,-2.4683 3.8303,0 0,17.5736 -3.8303,0 0,-2.4071 c -0.6131,0.864 -1.4937,1.58 -2.6294,2.1394 -1.1397,0.5597 -2.2837,0.8396 -3.4234,0.8396 -2.5511,0 -4.6374,-0.9053 -6.2502,-2.7076 -1.613,-1.8021 -2.4237,-4.0818 -2.4237,-6.8222 l 0,-0.004 z m 9.5339,5.4478 c 1.4524,0 2.6621,-0.502 3.6208,-1.5017 0.963,-1.0041 1.4443,-2.255 1.4443,-3.7528 0,-1.6047 -0.502,-2.872 -1.506,-3.802 -1.004,-0.9298 -2.2341,-1.3948 -3.6867,-1.3948 -1.4154,0 -2.6375,0.4814 -3.6581,1.4401 -1.0204,0.963 -1.5347,2.2384 -1.5347,3.8184 0,1.6254 0.572,2.9257 1.7077,3.8967 1.0123,0.8641 2.2177,1.2961 3.6084,1.2961 l 0.004,0 z m 21.4375,-19.923 5.9541,0 c 2.5101,0 4.4892,0.6337 5.9212,1.901 1.2467,1.0987 1.8716,2.4235 1.8716,3.9625 0,1.3084 -0.2052,2.3285 -0.6166,3.0526 -0.4116,0.7283 -1.033,1.3086 -1.856,1.7283 2.6826,1.2261 4.0239,3.2011 4.0239,5.9211 0,1.7117 -0.679,3.2218 -2.0282,4.5302 -1.6253,1.5594 -3.8225,2.3414 -6.5875,2.3414 l -6.6825,0 0,-23.4371 z m 4.3411,4.2134 0,4.814 1.2344,0 c 1.2837,0 2.185,-0.14 2.6911,-0.4116 0.6747,-0.3538 1.0163,-1.0859 1.0163,-2.1846 0,-0.7364 -0.3167,-1.292 -0.9504,-1.6624 -0.6337,-0.3703 -1.469,-0.5554 -2.506,-0.5554 l -1.4854,0 z m 0,9.0274 0,5.9828 2.2137,0 c 1.2674,0 2.2384,-0.2223 2.9132,-0.6626 0.8229,-0.5267 1.2386,-1.3948 1.2386,-2.5964 0,-0.8228 -0.3744,-1.4854 -1.1233,-1.9791 -0.7488,-0.4937 -1.6788,-0.7447 -2.7734,-0.7447 l -2.4688,0 z m 13.6157,10.1963 0,-17.5736 3.8307,0 0,1.613 c 0.8641,-1.4773 2.2467,-2.218 4.1477,-2.218 l 0,4.0856 c -1.3496,0.148 -2.2796,0.4897 -2.7857,1.0163 -0.6502,0.6748 -0.9793,1.8351 -0.9793,3.4811 l 0,9.5956 -4.2134,0 z m 10.3238,-17.5779 3.8965,0.004 0,1.7402 c 0.6913,-0.7815 1.465,-1.3699 2.3084,-1.7568 0.8436,-0.3908 1.724,-0.5884 2.6294,-0.5884 1.8557,0 3.4193,0.6873 4.6865,2.0616 1.3741,1.4767 2.0612,3.4107 2.0612,5.7931 l 0,10.3239 -4.213,0 0,-9.2129 c 0,-1.5801 -0.3623,-2.7981 -1.0781,-3.6415 -0.6336,-0.7406 -1.4486,-1.111 -2.44,-1.111 -0.9713,0 -1.823,0.3457 -2.5471,1.0287 -0.7243,0.6871 -1.0903,1.5841 -1.0903,2.6787 l 0,10.258 -4.2135,0 0,-17.5779 z m 18.1788,8.616 c 0,-2.9297 0.9421,-5.2341 2.8185,-6.9 1.6459,-1.4567 3.621,-2.1891 5.9211,-2.1891 1.2837,0 2.4811,0.2593 3.5757,0.7737 1.0987,0.5184 1.9051,1.2424 2.4111,2.172 l 0,-2.4683 3.8306,0 0,17.5736 -3.8306,0 0,-2.4071 c -0.613,0.864 -1.4937,1.58 -2.6291,2.1394 -1.14,0.5597 -2.2837,0.8396 -3.4234,0.8396 -2.5514,0 -4.6374,-0.9053 -6.2505,-2.7076 -1.613,-1.8021 -2.4234,-4.0818 -2.4234,-6.8222 l 0,-0.004 z m 9.5336,5.4478 c 1.4527,0 2.6624,-0.502 3.6211,-1.5017 0.9627,-1.0041 1.4443,-2.255 1.4443,-3.7528 0,-1.6047 -0.502,-2.872 -1.506,-3.802 -1.004,-0.9298 -2.2344,-1.3948 -3.6868,-1.3948 -1.4156,0 -2.6376,0.4814 -3.658,1.4401 -1.0204,0.963 -1.5348,2.2384 -1.5348,3.8184 0,1.6254 0.572,2.9257 1.7075,3.8967 1.0123,0.8641 2.218,1.2961 3.6087,1.2961 l 0.004,0 z m 20.2034,-5.4478 c 0,-2.9297 0.9421,-5.2341 2.8185,-6.9 1.646,-1.4567 3.621,-2.1891 5.9211,-2.1891 1.2837,0 2.4811,0.2593 3.5757,0.7737 1.0987,0.5184 1.9051,1.2424 2.4111,2.172 l 0,-2.4683 3.8306,0 0,17.5736 -3.8306,0 0,-2.4071 c -0.613,0.864 -1.4936,1.58 -2.6291,2.1394 -1.1399,0.5597 -2.2837,0.8396 -3.4234,0.8396 -2.5513,0 -4.6374,-0.9053 -6.2504,-2.7076 -1.613,-1.8021 -2.4235,-4.0818 -2.4235,-6.8222 l 0,-0.004 z m 9.5337,5.4478 c 1.4526,0 2.6623,-0.502 3.621,-1.5017 0.9627,-1.0041 1.4443,-2.255 1.4443,-3.7528 0,-1.6047 -0.502,-2.872 -1.506,-3.802 -1.004,-0.9298 -2.2343,-1.3948 -3.6867,-1.3948 -1.4157,0 -2.6377,0.4814 -3.6581,1.4401 -1.0204,0.963 -1.5347,2.2384 -1.5347,3.8184 0,1.6254 0.572,2.9257 1.7074,3.8967 1.0123,0.8641 2.218,1.2961 3.6087,1.2961 l 0.004,0 z m 12.7309,3.5141 0,-4.2095 4.2135,0 0,4.2095 -4.2135,0 z m 8.0442,-14.3481 c 0.4199,-1.2016 1.2017,-2.1515 2.3414,-2.8471 1.0123,-0.6131 2.0903,-0.9217 3.23,-0.9217 1.5184,0 2.8681,0.5103 4.0365,1.5226 1.1727,1.0119 1.7613,2.3039 1.7613,3.8633 l -4.0244,0 c -0.1646,-0.4197 -0.4031,-0.7366 -0.7077,-0.934 -0.3044,-0.2017 -0.6624,-0.3046 -1.0657,-0.3046 -0.4196,0 -0.8064,0.144 -1.152,0.4279 -0.3457,0.284 -0.5227,0.6297 -0.5227,1.0328 0.0413,0.251 0.1647,0.502 0.3621,0.7406 0.1976,0.243 0.5143,0.4527 0.934,0.6214 1.181,0.3786 2.366,0.7613 3.547,1.1397 1.8557,0.8643 2.8844,2.144 3.0737,3.831 0,1.8598 -0.5103,3.3904 -1.5226,4.5918 -1.1603,1.391 -2.7774,2.0904 -4.8471,2.0904 -0.609,0 -1.2344,-0.0657 -1.868,-0.1893 -1.2427,-0.2304 -2.2795,-0.8558 -3.1025,-1.8681 -0.8847,-1.074 -1.329,-2.3947 -1.329,-3.9584 l 4.2421,0 c 0.1483,0.6543 0.428,1.1523 0.8396,1.4854 0.4114,0.3376 0.8598,0.5063 1.3454,0.5063 0.5678,0 1.0534,-0.173 1.4401,-0.5186 0.391,-0.3455 0.5886,-0.7981 0.5886,-1.3495 0,-0.5886 -0.568,-1.111 -1.6953,-1.5637 -1.1274,-0.4526 -2.2344,-0.9053 -3.3084,-1.3496 -0.9914,-0.4854 -1.7281,-1.1234 -2.2014,-1.9134 -0.473,-0.79 -0.7117,-1.6128 -0.7117,-2.4564 0.041,-0.3374 0.0823,-0.6214 0.1234,-0.8517 0.0412,-0.2304 0.107,-0.5103 0.1893,-0.8271 l 0.004,0 z m 14.6937,14.3481 0,-4.2095 4.2134,0 0,4.2095 -4.2134,0 z" />
      <path
         inkscape:connector-curvature="0"
         id="path4142"
         style="fill:#102a83;fill-rule:evenodd"
         d="m 230.9743,276.3428 c -20.4385,6.1405 -39.951,12.4447 -60.4104,19.5147 l 0,-103.1017 57.0314,0 c 14.5597,0 25.4951,0.8522 32.7867,2.5567 7.2917,1.7045 13.9205,4.2615 19.8627,7.6705 1.294,0.8044 2.5526,1.6377 3.7758,2.5002 l 0,-10.3548 83.2601,0 c 8.3168,0 15.7751,1.1206 22.3723,3.3559 l 0,-3.3559 54.4746,0 28.4309,28.4564 28.5986,-28.4564 54.6871,0 0,0 41.6207,0 c 11.764,0 21.3048,0.6155 28.5964,1.8229 11.0323,1.823 19.5076,5.1847 25.3316,10.0379 3.1491,2.5841 5.429,5.9868 7.2403,9.4621 -104.8702,-0.723 -201.3794,8.5958 -294.9565,27.2196 0.2344,-1.2784 0.5265,-3.2841 0.5265,-4.7924 0,-5.7056 -1.6099,-9.2548 -4.8274,-11.1251 -3.2197,-1.8939 -8.3098,-2.8409 -15.2226,-2.8409 l 0,22.215 c -31.7991,6.8089 -63.2999,14.7304 -94.715,23.7529 2.1981,-2.5217 3.2972,-6.1533 3.2972,-10.8681 0,-5.3504 -1.6099,-9.2566 -4.8276,-11.6715 -3.2196,-2.4147 -8.4754,-3.6457 -15.767,-3.6457 l -1.4441,0 0,31.3446 0.2777,0.3031 z m -60.3693,49.165 -0.0411,-22.5058 c 61.8717,-21.8953 118.9731,-38.8314 173.502,-50.5996 l 0,2.0298 c 6.3897,0.2021 15.4798,-1.2183 17.8245,-5.8193 102.1648,-21.8768 197.3491,-29.8418 298.1101,-29.5758 1.6909,3.9573 2.4955,8.3865 2.4955,13.473 0,3.7527 -0.4213,7.0162 -1.0702,9.9719 -19.2642,-0.0758 -39.5912,0.2573 -58.3128,0.8226 0.8651,-1.3028 1.713,-5.3803 1.4519,-7.3381 0,-5.7053 -1.4656,-9.0509 -4.3774,-10.6846 -2.912,-1.6334 -8.0256,-2.462 -15.2937,-2.462 l -0.0428,21.2274 c -146.91,6.4058 -280.3364,33.1402 -414.246,81.4605 z m 490.3964,-80.3195 c -0.4928,2.137 -1.6137,4.0841 -2.6958,5.7146 -2.0361,3.0304 -6.5577,6.8892 -13.4707,11.482 7.7652,4.7349 13.1156,9.0672 16.0276,12.9498 3.5038,4.735 5.2794,10.9849 5.2794,18.7501 0,11.1743 -4.1668,20.1469 -12.4764,26.8704 -8.3098,6.7234 -19.4602,10.1089 -33.428,10.1089 l -95.4763,0 0,-4e-4 -29.0495,0 0,-67.9451 -23.1533,26.2313 -22.4176,-26.2313 0,67.9451 -60.4879,0.0238 0,-46.4486 c -4.816,1.561 -10.0271,2.3436 -15.625,2.3436 -7.6149,0 -15.6524,-2.3609 -24.4743,-7.9087 80.7277,-18.4193 156.9725,-28.0115 235.3656,-31.7835 l 0.0172,1.9672 c 2.982,0.4612 13.2272,-0.3178 15.6257,-2.8962 19.3732,-0.7042 40.5118,-1.1994 60.4393,-1.173 z m -481.0101,83.5087 37.9447,-0.006 c 13.5892,0 23.4851,-0.2604 29.6166,-0.7339 6.1059,-0.4736 12.1666,-1.5626 18.1323,-3.2671 6.6858,-1.6942 12.8014,-4.3795 18.3356,-8.0476 l 0,14.4213 60.1326,0 0,-50.7957 c -53.0635,11.6835 -103.3437,27.0413 -164.1618,48.4286 z m 404.9025,-56.6529 0,29.1431 c 7.3863,0 12.4999,-0.734 15.2937,-2.1781 3.8804,-1.9414 5.8453,-5.824 5.8453,-11.6478 0,-6.0606 -1.6099,-10.1563 -4.8274,-12.2159 -3.2197,-2.0596 -8.6884,-3.1013 -16.3116,-3.1013 z" />
    </g>
  </g>
</svg>
